<svg xmlns="http://www.w3.org/2000/svg" version="1.1" xmlns:xlink="http://www.w3.org/1999/xlink" width="1000" height="1000"><g clip-path="url(#SvgjsClipPath1189)"><rect width="1000" height="1000" fill="#ffffff"></rect><g transform="matrix(21.951219512195124,0,0,21.951219512195124,49.99999999999994,60.975609756097526)"><svg xmlns="http://www.w3.org/2000/svg" version="1.1" xmlns:xlink="http://www.w3.org/1999/xlink" width="41" height="40"><svg viewBox="0 0 41 40" fill="none" xmlns="http://www.w3.org/2000/svg" width="41" height="40">
  <path d="M9.49923 31.8667C6.06477 28.5209 3.92969 23.8323 3.92969 18.6417C3.92969 8.47775 12.1162 0.238281 22.2149 0.238281C32.3135 0.238281 40.5001 8.47775 40.5001 18.6417C40.5001 23.8323 38.365 28.521 34.9305 31.8667C34.528 30.8666 34.0124 29.9246 33.3996 29.057C35.9151 26.322 37.4525 22.6625 37.4525 18.6417C37.4525 10.1717 30.6304 3.30551 22.2149 3.30551C13.7993 3.30551 6.97722 10.1717 6.97722 18.6417C6.97722 22.6625 8.51464 26.3219 11.0301 29.0569C10.4173 29.9246 9.9017 30.8665 9.49923 31.8667Z" fill="#212529"></path>
  <ellipse cx="22.2142" cy="13.8285" rx="7.41291" ry="7.66001" fill="#212529"></ellipse>
  <path d="M10.7192 32.7438C12.3931 28.01 16.9081 24.6187 22.2152 24.6187C27.5222 24.6187 32.0372 28.01 33.7111 32.7438C30.5703 35.286 26.5706 36.8088 22.2152 36.8088C17.8597 36.8088 13.86 35.286 10.7192 32.7438Z" fill="#40C057"></path>
  <rect x="8.54199" y="34.0146" width="8.1274" height="3.24601" rx="0.5" transform="rotate(135 8.54199 34.0146)" fill="#212529"></rect>
</svg></svg></g></g><defs><clipPath id="SvgjsClipPath1189"><rect width="1000" height="1000" x="0" y="0" rx="150" ry="150"></rect></clipPath></defs></svg>