<?xml version="1.0" standalone="no"?>
<!DOCTYPE svg PUBLIC "-//W3C//DTD SVG 20010904//EN"
 "http://www.w3.org/TR/2001/REC-SVG-20010904/DTD/svg10.dtd">
<svg version="1.0" xmlns="http://www.w3.org/2000/svg"
 width="649.000000pt" height="649.000000pt" viewBox="0 0 649.000000 649.000000"
 preserveAspectRatio="xMidYMid meet">
<metadata>
Created by potrace 1.11, written by Peter Selinger 2001-2013
</metadata>
<g transform="translate(0.000000,649.000000) scale(0.100000,-0.100000)"
fill="#000000" stroke="none">
<path d="M3144 6171 c-2 -3 -11 -6 -19 -8 -51 -11 -88 -24 -105 -38 -8 -7 -40
-26 -70 -42 -126 -69 -245 -138 -248 -145 -2 -5 -8 -8 -13 -8 -8 0 -369 -204
-459 -259 -65 -40 -307 -177 -317 -179 -7 -2 -13 -8 -13 -13 0 -5 -4 -9 -10
-9 -5 0 -50 -25 -100 -55 -50 -30 -95 -55 -100 -55 -6 0 -10 -4 -10 -10 0 -5
-5 -10 -10 -10 -6 0 -66 -33 -135 -72 -69 -40 -134 -77 -145 -83 -11 -5 -20
-13 -20 -17 0 -5 -5 -8 -11 -8 -6 0 -63 -31 -127 -68 -64 -38 -184 -108 -267
-156 -160 -93 -196 -126 -242 -216 l-28 -55 -1 -1330 -1 -1330 25 -50 c32 -64
91 -145 106 -145 5 0 108 -60 196 -115 39 -24 172 -102 204 -119 12 -6 78 -45
149 -86 70 -41 135 -79 145 -85 128 -74 255 -147 282 -163 19 -11 134 -77 255
-147 121 -70 238 -137 260 -150 22 -12 80 -45 128 -74 49 -28 90 -51 92 -51 2
0 32 -17 66 -38 35 -21 89 -52 119 -69 30 -16 71 -39 91 -51 20 -11 47 -26 60
-34 13 -7 26 -15 29 -18 3 -3 19 -12 35 -20 17 -8 51 -28 78 -43 79 -48 169
-66 262 -52 41 6 184 71 230 105 10 8 73 43 135 76 19 11 37 21 40 24 3 3 16
11 30 17 14 7 52 28 85 48 33 19 78 45 100 56 22 12 42 25 45 28 3 4 28 18 55
31 28 14 52 28 55 31 3 4 30 19 60 35 30 15 57 31 60 34 3 4 10 9 15 11 27 11
220 124 223 131 2 4 8 8 13 8 7 0 326 180 389 220 8 5 65 37 125 71 61 34 117
68 125 74 8 7 40 25 70 41 30 16 60 33 65 37 14 11 219 131 225 132 3 0 16 8
30 16 14 9 59 37 101 63 78 47 117 91 158 175 l21 45 0 1328 0 1329 -30 59
c-33 66 -103 141 -150 163 -8 4 -33 18 -55 32 -22 13 -49 29 -60 35 -11 6 -33
19 -50 29 -16 10 -46 27 -65 38 -19 11 -60 35 -90 53 -56 33 -90 53 -157 91
-55 31 -206 118 -223 129 -21 13 -117 69 -165 96 -22 12 -102 59 -179 103 -76
45 -140 81 -143 81 -2 0 -29 16 -59 35 -30 19 -56 35 -58 35 -3 0 -40 21 -83
47 -43 25 -103 59 -133 76 -30 16 -62 36 -71 43 -8 8 -19 14 -23 14 -4 0 -62
32 -129 72 -67 39 -135 78 -152 86 -16 9 -88 48 -158 88 -70 41 -149 81 -175
90 -44 15 -167 26 -178 15z m-1361 -1943 c34 -18 64 -36 65 -40 2 -5 8 -8 12
-8 5 0 33 -14 62 -31 50 -30 66 -39 153 -89 19 -11 50 -28 68 -39 17 -10 111
-64 207 -119 96 -56 180 -105 185 -109 6 -4 24 -15 40 -23 17 -8 46 -24 65
-36 39 -23 274 -160 331 -192 20 -11 47 -26 60 -34 13 -7 26 -15 29 -18 3 -3
36 -21 73 -40 85 -41 79 -43 306 88 91 53 179 103 196 111 16 9 32 19 35 22 3
3 102 61 220 129 118 68 283 163 365 210 83 48 173 99 200 115 28 16 68 39 90
52 76 43 166 83 189 83 l23 0 -2 -902 c-2 -497 -5 -911 -7 -922 -5 -23 -34
-40 -43 -26 -3 5 -15 10 -26 10 -10 0 -19 3 -19 8 0 4 -25 18 -55 32 -30 14
-55 28 -55 32 0 5 -4 8 -10 8 -5 0 -47 22 -92 49 -75 44 -238 137 -328 189
-19 11 -91 52 -160 92 -69 40 -144 83 -167 96 -23 13 -90 52 -150 87 -59 35
-115 66 -123 71 -8 4 -44 24 -80 45 -36 21 -102 58 -146 81 l-81 43 -99 -53
c-55 -29 -100 -57 -102 -62 -2 -4 -8 -8 -13 -8 -5 0 -103 -55 -217 -121 -282
-165 -272 -159 -317 -183 -22 -12 -42 -23 -45 -26 -3 -3 -16 -11 -29 -18 -64
-37 -99 -56 -126 -73 -16 -10 -46 -26 -65 -37 -19 -11 -53 -29 -75 -42 -120
-67 -182 -102 -195 -110 -8 -5 -35 -19 -60 -31 -25 -13 -48 -27 -51 -32 -3 -5
-9 -8 -13 -8 -3 1 -27 -9 -54 -23 -41 -20 -75 -26 -88 -14 -3 4 -7 951 -3 973
1 6 1 13 0 17 -1 6 -1 99 0 153 0 11 0 106 0 210 0 243 5 426 14 465 9 39 29
39 108 -2z"/>
<path d="M4555 4065 c-54 -30 -100 -55 -101 -55 0 0 -79 -46 -175 -102 -96
-56 -199 -115 -229 -132 -30 -16 -56 -33 -58 -38 -2 -4 -8 -8 -13 -8 -6 0 -58
-28 -117 -63 -59 -35 -114 -66 -122 -70 -17 -8 -16 -8 -262 -154 -98 -59 -178
-109 -178 -112 1 -6 313 -188 314 -183 1 2 14 -3 30 -12 26 -13 33 -13 60 1
36 18 549 308 586 332 14 8 39 23 55 32 17 9 46 26 65 38 19 11 44 25 55 30
11 6 60 34 110 63 l90 53 2 205 c1 113 -1 211 -5 217 -6 9 -35 -3 -107 -42z"/>
<path d="M1758 4081 c-4 -28 -1 -934 3 -958 1 -7 6 -13 11 -13 10 0 150 72
158 81 3 3 30 19 60 36 30 16 79 44 108 62 29 17 54 31 56 31 2 0 34 18 70 40
36 22 68 40 71 40 3 0 22 11 43 24 20 12 87 52 147 87 61 35 112 67 113 71 2
5 10 8 17 8 21 0 30 21 14 31 -63 40 -96 60 -108 66 -8 4 -102 58 -209 120
-107 62 -196 113 -199 113 -2 0 -20 11 -41 23 -20 13 -57 35 -82 49 -25 13
-72 40 -105 58 -85 47 -109 60 -116 60 -4 0 -9 -13 -11 -29z"/>
<path d="M4633 3556 c-13 -6 -23 -14 -23 -18 0 -5 -4 -8 -9 -8 -8 0 -164 -86
-226 -125 -11 -7 -22 -12 -25 -12 -3 0 -31 -16 -62 -37 -31 -20 -59 -36 -61
-36 -4 0 -116 -64 -157 -90 -8 -5 -28 -17 -45 -26 -179 -97 -269 -164 -221
-164 8 0 16 -3 18 -7 4 -11 124 -83 137 -83 6 0 11 -4 11 -10 0 -5 11 -12 25
-16 14 -3 25 -10 25 -15 0 -5 4 -9 9 -9 5 0 86 -45 180 -100 93 -55 174 -100
180 -100 5 0 11 -3 13 -7 3 -8 38 -28 103 -61 17 -9 32 -18 35 -21 13 -15 112
-62 118 -56 10 10 15 996 5 1004 -4 4 -18 3 -30 -3z"/>
<path d="M2693 3518 c-31 -16 -69 -38 -84 -49 -15 -10 -29 -19 -32 -19 -3 0
-54 -29 -115 -65 -60 -36 -115 -65 -121 -65 -6 0 -11 -3 -11 -8 0 -4 -30 -23
-67 -42 -38 -19 -70 -37 -73 -40 -3 -3 -79 -48 -170 -100 -91 -51 -188 -108
-217 -127 l-51 -33 2 -204 c1 -113 5 -208 9 -212 7 -8 52 15 212 106 55 32
116 67 135 78 93 53 691 398 735 424 28 16 62 34 78 41 15 6 27 14 27 18 0 3
18 14 40 24 22 10 40 22 40 27 0 4 5 8 11 8 19 0 78 46 71 56 -8 11 -89 64
-98 64 -3 0 -18 8 -32 19 -15 10 -73 43 -129 74 l-102 55 -58 -30z"/>
</g>
</svg>
